{"glyphs":{":":{"x_min":0,"x_max":246,"ha":246,"o":"m 193 324 q 193 294 174 273 q 156 252 130 252 q 74 252 74 315 q 74 344 94 363 q 113 383 139 383 q 193 383 193 324 z m 153 58 q 153 28 135 7 q 116 -14 90 -14 q 34 -14 34 50 q 34 79 53 98 q 73 118 99 118 q 153 118 153 58 z"},"$":{"x_min":0,"x_max":401,"ha":401,"o":"m 354 319 q 354 280 318 280 q 288 280 278 317 q 268 354 232 363 q 220 306 205 229 q 280 193 305 169 q 330 145 330 109 q 330 56 292 24 q 251 -8 176 -8 l 156 -8 q 149 -43 137 -104 q 135 -113 124 -106 q 103 -96 107 -74 q 107 -74 121 -4 q 64 4 30 29 q -2 52 -2 80 q -2 119 32 119 q 65 119 74 80 q 83 39 128 29 l 157 172 q 89 206 67 229 q 44 251 44 286 q 44 339 84 370 q 125 401 194 401 l 202 401 l 217 474 q 220 487 234 480 q 254 470 250 449 q 247 432 239 398 q 289 391 322 369 q 354 347 354 319 z m 196 368 l 188 368 q 106 368 106 310 q 106 287 128 270 q 138 263 171 245 q 180 286 196 368 z m 263 85 q 263 119 190 157 q 181 111 163 25 l 177 25 q 263 25 263 85 z"},"?":{"x_min":0,"x_max":369,"ha":369,"o":"m 352 512 q 352 447 323 411 q 297 379 229 350 l 163 322 q 127 307 127 284 q 127 269 140 257 q 150 248 193 221 q 200 217 193 201 q 183 178 175 183 q 117 211 93 234 q 66 261 66 298 q 66 336 88 359 q 108 379 158 400 l 231 430 q 305 460 305 514 q 305 551 278 577 q 249 604 203 604 q 178 604 155 566 q 138 538 114 538 q 73 538 73 591 q 73 618 102 636 q 131 654 177 654 q 257 654 307 608 q 352 567 352 512 z m 142 53 q 142 25 125 6 q 108 -13 85 -13 q 34 -13 34 44 q 34 70 52 89 q 69 107 93 107 q 142 107 142 53 z"},"<":{"x_min":0,"x_max":392,"ha":392,"o":"m 310 -6 q 304 -16 287 -4 l 34 170 q 21 179 21 186 q 21 193 34 202 l 284 374 q 303 387 309 379 q 312 374 312 371 q 312 365 296 350 l 113 186 l 299 19 q 316 3 310 -6 z"},"'":{"x_min":0,"x_max":203,"ha":203,"o":"m 112 419 q 107 408 89 404 q 79 402 76 406 q 73 411 75 424 q 90 513 78 609 q 77 615 77 620 q 77 635 87 641 q 98 647 127 651 q 139 652 146 652 q 169 652 169 630 q 169 562 112 419 z"},"=":{"x_min":0,"x_max":529,"ha":529,"o":"m 416 294 q 416 281 407 270 q 398 258 387 258 l 81 258 q 73 258 73 275 q 73 303 101 303 l 407 303 q 416 303 416 294 z m 416 121 q 416 108 407 97 q 398 85 387 85 l 81 85 q 73 85 73 103 q 73 131 101 131 l 407 131 q 416 131 416 121 z"},"a":{"x_min":0,"x_max":446,"ha":446,"o":"m 414 75 q 356 -4 307 -4 q 263 -4 263 42 q 263 75 274 134 q 275 139 271 139 q 268 140 265 135 q 180 -9 96 -9 q 11 -9 11 86 q 11 203 102 298 q 186 384 268 384 q 293 384 322 374 q 329 372 339 383 q 355 401 366 401 q 371 401 378 397 q 385 393 384 386 q 384 380 376 357 q 330 224 330 96 q 330 50 345 50 q 360 50 397 94 q 398 95 399 95 q 404 95 409 89 q 415 83 415 78 q 415 76 414 75 z m 282 283 q 282 336 228 336 q 182 336 134 271 q 83 203 83 124 q 83 55 134 55 q 183 55 236 148 q 282 228 282 283 z"},"L":{"x_min":0,"x_max":554,"ha":554,"o":"m 494 122 q 469 54 464 5 q 463 -5 434 -3 q 364 1 260 1 q 141 1 46 -4 q 32 -5 29 -2 q 25 0 26 13 q 29 26 49 28 q 95 33 101 79 l 156 530 q 158 546 158 556 q 158 596 117 611 q 101 617 103 633 q 106 644 111 646 q 116 647 135 645 q 202 637 296 646 q 314 647 316 647 q 325 646 325 634 q 325 622 321 618 q 316 614 297 610 q 263 602 254 592 q 244 582 240 550 q 231 479 187 113 q 186 103 186 96 q 186 64 211 53 q 236 42 306 42 q 371 42 402 60 q 434 77 460 127 q 467 141 472 143 q 475 144 485 140 q 499 136 494 122 z"},"3":{"x_min":0,"x_max":359,"ha":359,"o":"m 311 317 q 311 223 163 167 q 218 167 251 134 q 281 104 281 60 q 281 -32 193 -93 q 108 -153 -32 -167 q -46 -168 -46 -152 q -46 -133 -20 -129 q 194 -98 194 44 q 194 82 167 104 q 141 126 101 126 q 88 126 69 124 q 55 123 50 139 q 46 154 63 161 q 223 222 223 304 q 223 358 155 358 q 104 358 59 333 q 46 326 34 343 q 30 349 30 353 q 30 359 46 369 q 111 409 183 409 q 311 409 311 317 z"},";":{"x_min":0,"x_max":246,"ha":246,"o":"m 187 324 q 187 294 169 273 q 150 252 125 252 q 68 252 68 315 q 68 343 88 364 q 107 383 133 383 q 187 383 187 324 z m 159 36 q 159 -99 27 -166 q 18 -171 13 -171 q 6 -171 2 -155 q 1 -151 1 -148 q 1 -138 32 -120 q 89 -87 89 -42 q 89 -24 66 -7 q 33 18 33 45 q 33 70 49 88 q 66 108 96 108 q 159 108 159 36 z"},"J":{"x_min":0,"x_max":360,"ha":360,"o":"m 321 632 q 321 619 297 612 q 270 604 261 595 q 253 587 250 563 l 186 48 q 172 -63 103 -124 q 40 -178 -51 -178 q -111 -178 -143 -157 q -151 -152 -151 -145 q -151 -134 -138 -113 q -121 -84 -105 -84 q -97 -84 -80 -96 q -41 -124 -1 -124 q 44 -124 66 -97 q 92 -65 102 19 l 170 568 q 171 574 171 579 q 171 594 158 600 q 147 606 109 613 q 89 617 91 632 q 93 647 114 645 q 212 635 302 649 q 315 651 318 648 q 321 646 321 632 z"},"V":{"x_min":0,"x_max":771,"ha":771,"o":"m 755 630 q 753 613 722 604 q 696 596 659 537 q 528 328 364 11 q 356 -9 328 -17 q 326 -18 325 -18 q 313 -18 309 11 q 300 74 246 247 q 190 425 137 554 q 118 600 78 609 q 57 614 58 623 q 61 645 79 643 q 163 633 278 652 q 286 653 291 654 q 301 655 304 651 q 307 648 305 637 q 304 630 301 627 q 296 623 279 617 q 229 599 229 576 q 229 569 232 559 q 263 474 298 352 q 329 244 360 136 q 363 125 368 125 q 372 125 378 136 q 458 285 597 538 q 604 552 604 563 q 604 592 554 611 q 533 619 536 634 q 541 651 570 647 q 662 635 736 645 q 749 646 752 644 q 756 642 755 630 z"},"\"":{"x_min":0,"x_max":381,"ha":381,"o":"m 290 419 q 286 408 267 404 q 257 402 254 406 q 250 411 253 424 q 269 509 256 609 q 255 615 255 620 q 255 645 305 651 q 317 652 325 652 q 347 652 347 630 q 347 562 290 419 z m 112 419 q 107 408 89 404 q 79 402 76 406 q 73 411 75 424 q 90 513 78 609 q 77 615 77 620 q 77 635 87 641 q 98 647 127 651 q 139 652 146 652 q 169 652 169 630 q 169 562 112 419 z"},"7":{"x_min":0,"x_max":416,"ha":416,"o":"m 379 369 q 354 340 259 154 q 177 -7 109 -153 q 108 -159 64 -168 q 23 -177 11 -177 q -1 -177 9 -163 q 137 8 292 320 q 298 333 289 333 q 263 333 175 326 q 81 318 42 312 q 33 311 28 313 q 23 316 24 323 q 24 331 47 370 q 56 384 68 407 q 77 419 83 419 q 97 419 104 408 q 112 396 145 394 q 182 392 370 390 q 380 390 382 383 q 385 376 379 369 z"},"S":{"x_min":0,"x_max":551,"ha":551,"o":"m 479 509 q 477 492 460 488 q 441 486 438 500 q 423 562 391 586 q 359 611 294 611 q 247 611 215 587 q 179 562 179 517 q 179 478 200 449 q 222 420 285 377 q 381 312 417 268 q 452 224 452 171 q 452 84 386 33 q 325 -14 231 -14 q 62 -14 45 41 q 36 72 31 123 q 29 147 47 154 q 59 159 63 158 q 69 156 74 144 q 123 30 234 30 q 297 30 334 57 q 374 86 374 139 q 374 177 352 207 q 327 239 251 292 q 163 354 134 389 q 101 429 101 480 q 101 559 162 607 q 222 655 317 655 q 397 655 440 639 q 456 633 464 628 q 478 620 479 608 q 485 566 479 509 z"},"}":{"x_min":0,"x_max":441,"ha":441,"o":"m 396 280 q 395 265 385 264 q 242 251 242 150 q 242 126 250 78 q 257 30 257 6 q 257 -142 4 -172 q -17 -174 -20 -161 q -24 -141 -7 -138 q 98 -119 136 -90 q 171 -63 171 -13 q 171 4 162 64 q 156 104 156 135 q 156 242 273 280 q 186 312 186 379 q 186 415 214 484 q 244 558 244 584 q 244 623 215 646 q 182 673 95 699 q 82 703 88 723 q 93 737 116 732 q 326 683 326 567 q 326 529 293 457 q 266 398 266 373 q 266 308 389 296 q 397 295 396 280 z"},"Z":{"x_min":0,"x_max":649,"ha":649,"o":"m 618 637 q 620 628 605 611 q 360 330 166 81 q 156 68 156 61 q 156 50 179 48 q 240 43 339 43 q 438 43 476 66 q 507 86 536 154 q 544 172 560 168 q 569 166 568 151 q 561 65 537 1 q 533 -10 507 -8 q 411 1 284 1 q 104 1 44 -4 q 17 -6 12 3 q 10 16 25 33 q 279 326 473 577 q 480 587 480 590 q 480 597 441 597 l 328 597 q 238 597 196 569 q 162 547 129 482 q 117 463 104 469 q 89 473 94 487 q 121 558 129 636 q 130 647 159 645 q 260 638 391 638 q 520 638 591 643 q 610 645 611 644 q 617 643 618 637 z"},"x":{"x_min":0,"x_max":448,"ha":448,"o":"m 409 340 q 409 322 399 308 q 389 294 376 294 q 365 294 341 302 q 317 309 316 309 q 305 309 292 293 q 277 274 234 204 q 270 101 282 75 q 294 49 305 49 q 322 49 348 93 q 349 94 351 94 q 355 94 363 87 q 370 80 370 75 q 370 74 369 73 q 324 -5 278 -5 q 240 -5 225 35 q 214 61 189 130 q 143 53 113 24 q 83 -5 51 -5 q 5 -5 5 37 q 5 54 15 69 q 25 83 37 83 q 48 83 73 75 q 97 68 98 68 q 116 68 176 170 q 140 277 126 305 q 116 326 105 326 q 91 326 62 282 q 61 281 59 281 q 55 281 48 288 q 42 294 42 299 q 42 300 42 301 q 85 380 132 380 q 170 380 186 340 q 203 298 221 244 q 273 331 303 358 q 329 382 363 382 q 409 382 409 340 z"},")":{"x_min":0,"x_max":387,"ha":387,"o":"m 325 313 q 325 174 237 45 q 154 -79 6 -171 q -5 -178 -12 -178 q -20 -178 -24 -169 q -30 -151 -20 -143 q 115 -41 175 66 q 242 184 242 344 q 242 441 205 524 q 168 607 84 699 q 74 708 86 725 q 91 732 98 732 q 105 732 116 723 q 325 542 325 313 z"},"&":{"x_min":0,"x_max":737,"ha":737,"o":"m 738 431 q 707 395 671 369 q 658 360 648 360 q 637 360 625 373 q 595 406 552 438 q 567 405 567 354 q 567 218 499 122 q 407 -8 254 -8 q 154 -8 96 47 q 37 101 37 197 q 37 302 101 363 q 157 416 237 416 q 265 416 284 415 q 303 414 302 414 q 314 414 314 460 q 314 580 227 580 q 215 580 193 579 q 183 579 181 596 q 179 615 185 619 q 246 654 272 654 q 309 654 330 608 q 352 562 352 486 q 352 375 297 272 q 245 176 156 107 q 199 56 276 56 q 406 56 474 160 q 531 248 531 346 q 531 398 517 436 q 504 471 487 471 q 478 471 444 448 q 442 447 440 447 q 428 447 428 458 q 428 459 429 460 q 458 494 493 518 q 503 527 513 527 q 526 527 590 482 q 675 422 684 422 q 693 422 723 443 q 725 444 727 444 q 739 444 739 434 q 739 432 738 431 z m 275 327 q 275 377 214 377 q 175 377 148 341 q 117 299 117 222 q 117 174 137 134 q 198 179 238 238 q 275 292 275 327 z"},"_":{"x_min":0,"x_max":402,"ha":402,"o":"m 362 -144 l -48 -144 l -48 -85 l 362 -85 z"},"v":{"x_min":0,"x_max":477,"ha":477,"o":"m 423 325 q 423 200 356 100 q 286 -5 191 -5 q 138 -5 107 22 q 76 49 76 98 q 76 173 173 316 q 175 319 174 321 q 173 323 171 323 q 62 320 62 303 q 62 298 63 284 q 65 270 65 268 q 65 265 56 264 q 47 264 44 269 q 14 314 14 346 q 14 372 55 376 q 134 384 215 384 q 238 384 238 374 q 238 367 231 355 q 153 217 153 135 q 153 56 227 56 q 285 56 333 130 q 378 202 378 279 q 378 286 343 301 q 308 316 308 340 q 308 388 365 388 q 423 388 423 325 z"},"O":{"x_min":0,"x_max":785,"ha":785,"o":"m 729 378 q 729 211 615 97 q 504 -14 349 -14 q 219 -14 138 61 q 55 137 55 267 q 55 433 172 547 q 283 656 429 656 q 566 656 647 581 q 729 506 729 378 z m 634 356 q 634 468 574 536 q 510 608 402 608 q 296 608 225 520 q 150 429 150 286 q 150 170 213 102 q 277 33 384 33 q 494 33 565 126 q 634 218 634 356 z"},"(":{"x_min":0,"x_max":387,"ha":387,"o":"m 409 723 q 415 705 405 697 q 271 595 210 488 q 143 370 143 210 q 143 113 179 31 q 216 -54 301 -145 q 311 -154 299 -171 q 294 -178 287 -178 q 280 -178 269 -169 q 60 13 60 241 q 60 379 147 509 q 231 632 379 725 q 391 732 397 732 q 405 732 409 723 z"},"C":{"x_min":0,"x_max":709,"ha":709,"o":"m 656 596 q 654 552 646 475 q 645 460 620 459 q 603 458 600 471 q 584 545 547 578 q 509 612 436 612 q 318 612 236 516 q 153 418 153 269 q 153 160 209 95 q 267 28 370 28 q 518 28 585 193 q 592 209 604 209 q 609 209 616 208 q 636 206 632 188 q 612 102 593 60 q 580 32 522 11 q 454 -15 358 -15 q 213 -15 134 57 q 55 128 55 257 q 55 426 177 541 q 296 654 466 654 q 545 654 600 635 q 657 615 656 596 z"},"W":{"x_min":0,"x_max":1064,"ha":1064,"o":"m 1047 622 q 1045 605 1013 596 q 980 586 951 529 q 792 219 693 11 q 683 -9 656 -17 q 654 -18 652 -18 q 640 -18 638 11 q 631 108 535 435 q 446 257 329 11 q 319 -9 292 -17 q 291 -18 289 -18 q 276 -18 274 11 q 266 121 136 546 q 123 591 77 602 q 55 607 56 616 q 59 637 78 635 q 149 628 259 645 q 278 648 283 646 q 287 643 287 631 q 287 621 260 608 q 226 591 226 567 q 226 561 228 552 q 258 425 326 146 q 329 136 333 136 q 338 136 343 146 q 402 270 513 504 q 510 516 500 546 q 488 581 449 603 q 429 612 431 623 q 438 645 454 642 q 536 628 638 639 q 650 640 655 640 q 665 639 663 623 q 662 611 637 603 q 586 587 586 567 q 586 562 589 552 q 621 425 689 146 q 691 136 696 136 q 701 136 706 146 q 820 380 889 530 q 896 545 896 557 q 896 586 847 604 l 845 604 q 826 612 829 626 q 831 637 836 639 q 842 642 862 639 q 949 628 1027 637 q 1041 639 1044 636 q 1048 633 1047 622 z"},"A":{"x_min":0,"x_max":732,"ha":732,"o":"m 658 10 q 652 -10 638 -5 q 574 8 447 -2 q 422 -4 422 8 q 421 21 440 29 q 494 51 494 71 q 494 78 491 90 q 479 136 452 229 q 418 227 333 227 q 262 227 215 231 q 203 207 154 114 q 144 94 144 78 q 144 54 167 43 q 207 24 207 17 q 207 15 206 13 q 204 -3 176 0 q 95 9 14 -6 q 5 -8 1 -7 q -4 -5 -5 9 q -5 21 30 36 q 64 51 95 106 q 208 310 239 366 q 317 513 363 620 q 375 648 407 660 q 417 663 425 632 q 498 363 581 89 q 595 43 642 28 q 662 21 658 10 z m 441 267 q 418 344 372 501 q 370 509 365 509 q 359 509 355 501 q 311 415 236 269 q 284 265 348 265 q 389 265 441 267 z"},"f":{"x_min":0,"x_max":328,"ha":328,"o":"m 421 672 q 420 652 410 628 q 400 605 391 605 q 385 605 352 618 q 329 627 301 627 q 234 627 205 559 q 183 510 169 383 l 168 374 l 287 375 q 297 375 298 367 q 299 365 296 350 q 289 328 248 330 l 163 335 l 130 31 q 117 -93 64 -168 q 11 -242 -58 -242 q -114 -242 -113 -212 q -111 -161 -81 -161 q -76 -161 -54 -172 q -42 -181 -26 -181 q 39 -181 57 -12 l 92 315 q 94 338 73 339 l 41 341 q 31 342 31 348 q 32 350 33 354 q 40 373 88 373 l 98 373 q 112 498 166 584 q 233 694 344 694 q 385 694 389 694 q 422 690 421 672 z"},"Q":{"x_min":0,"x_max":785,"ha":785,"o":"m 1034 -126 q 1037 -145 1027 -148 q 921 -178 804 -178 q 547 -178 385 -12 q 361 -14 349 -14 q 219 -14 138 61 q 55 137 55 267 q 55 433 172 547 q 283 656 429 656 q 566 656 647 581 q 729 506 729 378 q 729 253 662 153 q 598 58 493 15 q 628 -134 829 -134 q 923 -134 1019 -115 q 1030 -113 1034 -126 z m 634 356 q 634 468 574 536 q 510 608 402 608 q 296 608 225 520 q 150 429 150 286 q 150 170 213 102 q 277 33 384 33 q 494 33 565 126 q 634 218 634 356 z"},"w":{"x_min":0,"x_max":703,"ha":703,"o":"m 649 328 q 649 189 582 90 q 517 -5 433 -5 q 388 -5 362 25 q 335 55 335 107 q 335 126 339 147 q 280 -5 172 -5 q 65 -5 65 91 q 65 167 173 316 q 176 320 175 321 q 174 323 172 323 q 122 321 115 321 q 63 316 62 303 q 62 303 62 268 q 62 265 53 264 q 44 264 41 269 q 17 317 17 346 q 17 372 59 376 q 138 384 220 384 q 242 384 242 374 q 242 368 234 355 q 144 210 144 125 q 144 56 203 56 q 247 56 281 105 q 316 153 334 238 l 360 360 q 361 366 363 370 q 371 386 399 386 q 433 386 433 372 q 433 367 431 356 l 412 265 q 396 188 396 136 q 396 56 464 56 q 518 56 561 125 q 603 194 603 279 q 603 286 570 301 q 536 315 536 339 q 536 388 595 388 q 649 388 649 328 z"},"-":{"x_min":0,"x_max":337,"ha":337,"o":"m 284 309 q 284 261 255 256 q 168 243 87 219 q 64 212 55 212 q 41 212 41 231 q 41 286 66 289 q 93 292 253 322 q 271 325 275 325 q 284 323 284 309 z"},"E":{"x_min":0,"x_max":588,"ha":588,"o":"m 536 635 q 523 597 514 525 q 512 510 498 510 q 485 510 482 523 q 474 558 466 569 q 454 588 426 593 q 404 597 268 597 q 252 597 248 592 q 246 589 244 577 l 218 373 q 217 364 219 363 q 222 361 231 361 q 274 362 355 367 q 377 370 393 422 q 399 442 417 437 q 432 433 428 422 q 405 348 398 249 q 397 237 382 235 q 366 233 366 251 q 366 283 364 291 q 358 312 336 315 q 300 320 221 320 q 212 320 212 313 q 208 273 185 100 q 184 92 184 86 q 184 52 235 44 q 247 42 316 42 q 429 42 471 127 q 480 146 495 140 q 510 137 505 122 q 486 70 474 5 q 472 -4 444 -3 q 372 1 263 1 q 139 1 46 -4 q 34 -5 30 -2 q 25 1 26 13 q 28 26 49 28 q 78 31 88 40 q 97 48 101 80 l 156 530 q 159 555 159 566 q 159 589 145 598 q 128 605 111 612 q 99 618 103 635 q 108 648 137 643 q 165 638 287 638 q 416 638 508 644 q 537 646 537 640 q 537 638 536 635 z"},"s":{"x_min":0,"x_max":357,"ha":357,"o":"m 315 346 q 309 309 305 299 q 301 288 290 288 q 272 288 257 311 q 230 352 184 352 q 157 352 141 338 q 126 325 126 307 q 126 284 144 266 q 151 259 181 238 q 246 192 265 172 q 287 147 287 114 q 287 60 244 26 q 200 -8 130 -8 q 14 -8 14 48 q 14 105 35 105 q 58 105 73 78 q 101 30 153 30 q 215 30 215 79 q 215 102 203 117 q 191 133 154 158 q 98 196 79 219 q 59 242 59 272 q 59 322 100 356 q 142 390 203 390 q 322 390 315 346 z"},">":{"x_min":0,"x_max":392,"ha":392,"o":"m 319 170 l 69 -2 q 50 -15 44 -7 q 41 -2 41 1 q 41 7 57 22 l 240 186 l 54 353 q 37 369 43 378 q 49 388 66 376 l 319 202 q 333 193 333 186 q 333 179 319 170 z"},"l":{"x_min":0,"x_max":253,"ha":253,"o":"m 214 656 q 161 347 126 164 q 107 65 107 62 q 107 49 125 49 q 141 49 177 93 q 178 94 180 94 q 185 94 190 88 q 195 82 195 77 q 195 74 194 73 q 129 -5 82 -5 q 34 -5 34 31 q 34 55 55 164 q 92 354 132 604 q 137 637 124 637 q 112 637 56 623 q 45 620 45 642 q 45 647 48 649 q 152 697 179 697 q 215 697 215 664 q 215 660 214 656 z"},"8":{"x_min":0,"x_max":469,"ha":469,"o":"m 423 489 q 423 381 300 330 q 406 271 406 177 q 406 99 345 46 q 285 -7 202 -7 q 122 -7 72 32 q 21 72 21 136 q 21 257 172 322 q 89 372 89 447 q 89 521 146 566 q 198 608 270 608 q 338 608 379 577 q 423 544 423 489 z m 355 480 q 355 518 331 541 q 308 564 267 564 q 222 564 192 536 q 161 508 161 466 q 161 430 181 406 q 201 380 255 352 q 355 393 355 480 z m 326 163 q 326 204 303 233 q 278 265 215 299 q 99 249 99 141 q 99 94 128 66 q 157 38 206 38 q 255 38 289 70 q 326 105 326 163 z"},"\\":{"x_min":0,"x_max":428,"ha":428,"o":"m 357 -146 q 360 -157 339 -167 q 315 -178 312 -165 l 61 705 q 58 717 81 727 q 103 736 106 725 z"},"e":{"x_min":0,"x_max":381,"ha":381,"o":"m 333 314 q 333 262 277 226 q 224 191 94 155 q 96 99 121 70 q 142 44 175 44 q 218 44 263 75 q 280 86 289 82 q 299 75 299 65 q 299 57 292 51 q 219 -6 149 -6 q 20 -6 20 141 q 20 251 84 322 q 145 389 229 389 q 333 389 333 314 z m 255 296 q 255 319 240 334 q 226 349 203 349 q 163 349 132 306 q 99 260 95 186 q 188 216 221 239 q 255 262 255 296 z"},"b":{"x_min":0,"x_max":442,"ha":442,"o":"m 388 262 q 388 143 302 60 q 230 -11 161 -11 q 121 -11 83 0 q 20 19 20 46 q 20 55 24 69 q 52 171 85 400 q 98 487 115 604 q 119 637 105 637 q 88 637 39 624 q 35 623 30 631 q 25 638 25 645 q 25 648 27 649 q 123 697 156 697 q 197 697 197 664 q 197 660 196 656 q 177 521 120 233 q 119 229 123 229 q 127 229 130 232 q 210 388 290 388 q 388 388 388 262 z m 310 246 q 310 324 256 324 q 223 324 169 241 q 104 141 104 87 q 104 40 181 40 q 232 40 267 85 q 310 140 310 246 z"},"%":{"x_min":0,"x_max":758,"ha":758,"o":"m 701 159 q 701 84 655 33 q 608 -17 545 -17 q 494 -17 463 13 q 432 43 432 98 q 432 172 480 221 q 526 268 590 268 q 642 268 671 238 q 701 208 701 159 z m 510 398 q 327 98 245 -41 q 242 -47 234 -44 q 230 -42 223 -37 q 206 -26 211 -17 q 232 18 476 420 q 482 430 497 418 q 514 405 510 398 z m 301 299 q 301 224 255 174 q 208 123 145 123 q 94 123 63 153 q 32 184 32 238 q 32 312 80 361 q 125 408 190 408 q 242 408 272 377 q 301 348 301 299 z m 623 151 q 623 235 576 235 q 508 235 508 100 q 508 17 557 17 q 623 17 623 151 z m 223 291 q 223 375 176 375 q 108 375 108 240 q 108 157 157 157 q 223 157 223 291 z"},"m":{"x_min":0,"x_max":689,"ha":689,"o":"m 647 73 q 590 -5 541 -5 q 492 -5 492 35 q 492 48 514 153 q 536 258 536 276 q 536 326 488 326 q 450 326 414 265 q 376 203 357 102 l 341 18 q 337 5 320 0 q 312 -2 297 -3 q 281 -4 275 0 q 270 5 272 16 q 317 226 317 273 q 317 326 271 326 q 234 326 192 260 q 149 192 130 94 l 116 22 q 112 0 74 -2 q 59 -3 53 1 q 47 5 49 14 q 61 82 73 149 q 86 229 86 285 q 86 332 71 332 q 55 332 19 287 q 18 286 16 286 q 11 286 6 292 q 0 299 0 304 q 0 306 1 307 q 61 386 108 386 q 153 386 153 339 q 153 312 145 269 q 144 265 148 264 q 153 263 155 268 q 229 390 307 390 q 386 390 387 291 q 453 390 526 390 q 608 390 608 303 q 608 273 582 164 q 563 84 563 63 q 563 49 579 49 q 594 49 630 93 q 631 94 633 94 q 637 94 643 88 q 648 82 648 77 q 648 75 647 73 z"},"#":{"x_min":0,"x_max":524,"ha":524,"o":"m 480 275 q 466 235 445 237 q 399 242 363 245 q 351 189 339 137 q 373 133 444 125 q 453 124 446 103 q 434 62 412 64 q 386 66 324 73 q 323 67 299 -36 q 297 -43 285 -39 q 267 -26 270 -8 q 279 38 289 78 q 259 81 150 93 l 121 -36 q 119 -43 107 -39 q 88 -26 92 -8 q 100 28 115 97 q 86 100 28 106 q 15 107 24 137 q 36 175 56 172 q 82 168 130 163 q 138 197 153 270 q 125 272 62 279 q 49 280 58 310 q 69 348 90 345 q 117 341 169 335 q 175 363 187 422 q 191 433 206 429 q 225 419 220 399 q 215 375 203 330 q 251 325 342 313 q 350 348 365 422 q 371 433 384 429 q 403 419 398 399 q 392 369 377 309 q 416 306 478 298 q 485 297 480 275 z m 328 249 q 265 257 189 266 q 180 219 166 159 q 213 153 304 141 q 312 176 328 249 z"},",":{"x_min":0,"x_max":246,"ha":246,"o":"m 159 36 q 159 -99 27 -166 q 18 -171 13 -171 q 6 -171 2 -155 q 1 -151 1 -148 q 1 -138 32 -120 q 89 -87 89 -42 q 89 -24 66 -7 q 33 18 33 45 q 33 70 49 88 q 66 108 96 108 q 159 108 159 36 z"},"n":{"x_min":0,"x_max":469,"ha":469,"o":"m 426 73 q 368 -5 320 -5 q 270 -5 270 35 q 270 54 294 164 q 315 260 315 276 q 315 326 269 326 q 233 326 191 260 q 147 190 128 94 l 114 22 q 110 0 72 -2 q 57 -3 51 1 q 45 5 47 14 q 59 82 71 149 q 84 229 84 285 q 84 332 69 332 q 53 332 17 287 q 16 286 14 286 q 9 286 4 292 q -1 299 -1 304 q -1 306 -1 307 q 59 386 106 386 q 151 386 151 339 q 151 312 143 269 q 142 265 146 264 q 151 263 153 268 q 227 390 305 390 q 388 390 388 303 q 388 283 361 164 q 342 81 342 63 q 342 49 359 49 q 371 49 410 93 q 411 94 412 94 q 417 94 422 88 q 427 82 427 77 q 427 75 426 73 z"},"h":{"x_min":0,"x_max":461,"ha":461,"o":"m 416 73 q 357 -5 309 -5 q 260 -5 260 35 q 260 50 286 164 q 308 261 308 276 q 308 326 259 326 q 221 326 179 260 q 135 191 119 94 l 107 22 q 104 1 61 -2 q 47 -3 40 1 q 34 5 35 14 q 81 340 108 604 q 111 637 98 637 q 78 637 31 624 q 26 623 22 629 q 19 636 19 643 q 19 648 21 649 q 121 697 150 697 q 192 697 192 664 q 192 660 191 656 q 168 515 126 269 q 125 265 129 264 q 134 263 136 268 q 165 313 203 347 q 252 390 295 390 q 333 390 356 369 q 382 345 382 303 q 382 286 353 164 q 331 71 331 63 q 331 49 347 49 q 360 49 400 93 q 401 94 402 94 q 407 94 412 88 q 417 83 417 77 q 417 75 416 73 z"},"z":{"x_min":0,"x_max":381,"ha":381,"o":"m 352 357 q 245 238 106 85 q 97 75 97 74 q 98 72 102 73 q 124 75 139 75 q 150 75 187 71 q 223 66 235 66 q 274 66 303 105 q 310 115 322 109 q 334 105 328 94 q 317 75 311 55 q 292 -4 237 -4 q 215 -4 159 6 q 103 15 76 15 q 41 15 8 -4 q 7 -5 5 -5 q 0 -5 -5 1 q -10 8 -10 13 q -10 15 -9 16 q 154 198 236 287 q 245 297 245 299 q 245 300 240 300 q 229 299 201 299 q 190 299 158 303 q 125 308 114 308 q 89 308 77 300 q 65 292 50 269 q 43 258 31 265 q 21 269 26 280 q 35 299 42 319 q 54 356 63 366 q 76 378 110 378 q 132 378 186 368 q 240 359 267 359 q 304 359 332 378 q 333 379 334 379 q 340 379 346 372 q 353 365 353 360 q 353 358 352 357 z"},"B":{"x_min":0,"x_max":609,"ha":609,"o":"m 525 201 q 525 96 449 43 q 381 -4 261 -4 q 248 -4 197 -1 q 146 2 121 2 q 77 2 46 -4 q 33 -7 29 -5 q 26 -3 26 6 q 25 19 49 28 q 76 39 85 48 q 99 62 102 90 l 158 548 q 159 553 159 558 q 159 595 115 605 q 89 611 91 622 q 93 636 98 639 q 104 642 122 639 q 135 637 190 637 q 220 637 261 638 q 302 639 315 639 q 409 639 462 605 q 517 570 517 506 q 517 398 384 349 q 371 344 384 342 q 444 333 481 300 q 525 263 525 201 z m 422 497 q 422 605 298 605 q 266 605 255 599 q 247 593 245 578 l 218 366 l 260 366 q 422 366 422 497 z m 429 189 q 429 327 277 327 q 239 327 213 322 l 183 80 q 177 33 274 33 q 429 33 429 189 z"},"K":{"x_min":0,"x_max":683,"ha":683,"o":"m 653 626 q 653 615 645 611 q 644 610 627 605 q 579 590 509 534 q 470 502 284 350 q 360 260 514 86 q 552 45 594 33 q 615 27 614 17 q 612 0 593 0 q 483 4 405 -5 q 388 -9 387 3 q 386 15 409 25 q 424 32 424 52 q 424 67 413 81 q 346 165 215 314 l 186 80 q 183 52 235 36 q 258 29 257 17 q 255 3 249 1 q 246 -1 229 0 q 147 4 48 -4 q 36 -5 33 -2 q 30 1 31 13 q 33 26 52 28 q 96 33 102 80 l 159 549 q 160 554 160 559 q 160 596 118 606 q 102 610 102 610 q 95 613 96 623 q 97 635 102 638 q 107 641 126 640 q 240 633 310 640 q 322 641 326 638 q 330 635 329 623 q 328 614 306 609 q 268 600 258 592 q 248 583 244 556 l 218 343 q 300 411 453 539 q 481 563 481 583 q 481 601 459 610 q 445 616 442 619 q 438 623 441 632 q 444 643 448 645 q 452 646 469 644 q 556 632 634 642 q 646 644 649 641 q 653 638 653 626 z"},"R":{"x_min":0,"x_max":623,"ha":623,"o":"m 588 -1 q 587 -12 564 -12 q 484 -12 403 75 q 325 157 270 290 q 250 288 208 286 l 183 80 q 182 74 182 69 q 182 54 193 47 q 204 41 235 36 q 260 32 258 17 q 256 3 250 0 q 246 -1 229 0 q 147 4 46 -4 q 34 -5 30 -2 q 25 1 26 13 q 28 25 49 28 q 77 32 87 41 q 98 51 101 80 l 158 548 q 159 553 159 558 q 159 595 115 605 q 89 611 91 622 q 93 635 99 639 q 104 642 122 639 q 140 636 180 636 q 193 636 246 638 q 298 639 343 639 q 429 639 481 599 q 533 560 533 491 q 533 362 398 318 q 373 310 357 306 q 401 191 460 111 q 521 28 576 17 q 590 14 588 -1 z m 441 487 q 441 549 410 576 q 378 605 301 605 q 265 605 253 593 q 245 584 241 552 l 212 325 q 310 328 360 350 q 441 385 441 487 z"},"T":{"x_min":0,"x_max":686,"ha":686,"o":"m 656 637 q 662 571 648 487 q 646 477 646 476 q 644 472 635 470 q 618 466 615 484 q 603 548 578 570 q 543 600 449 600 q 404 600 402 583 l 343 96 q 342 87 342 81 q 342 59 356 48 q 368 39 403 30 q 428 24 428 16 q 428 6 424 -1 q 419 -7 395 -5 q 274 6 194 -4 q 174 -6 168 -4 q 164 -1 163 8 q 162 24 182 29 q 224 40 240 55 q 258 72 263 110 l 320 583 q 322 597 305 600 q 303 600 278 600 q 190 600 145 568 q 111 544 78 480 q 68 461 53 467 q 39 471 45 485 q 67 541 79 634 q 81 645 108 643 q 206 636 330 636 q 558 636 628 646 q 655 650 656 637 z"},"P":{"x_min":0,"x_max":567,"ha":567,"o":"m 540 488 q 540 380 464 323 q 398 273 283 267 q 274 267 274 282 q 274 294 277 297 q 280 301 293 302 q 450 315 450 485 q 450 550 413 579 q 378 605 300 605 q 267 605 254 593 q 245 583 241 552 l 183 80 q 182 71 182 66 q 182 53 192 47 q 201 42 235 36 q 260 31 258 17 q 256 3 250 0 q 246 -1 229 0 q 147 4 46 -4 q 34 -5 30 -2 q 25 1 26 13 q 28 26 49 28 q 95 33 101 80 l 158 548 q 159 553 159 558 q 159 595 115 605 q 89 611 91 622 q 93 636 99 639 q 104 643 122 639 q 143 635 185 635 q 206 635 261 637 q 315 639 348 639 q 435 639 487 598 q 540 556 540 488 z"},"|":{"x_min":0,"x_max":266,"ha":266,"o":"m 157 -161 q 157 -173 133 -173 q 109 -173 109 -161 l 109 758 q 110 770 134 770 q 144 770 149 769 q 157 767 157 758 z"},"t":{"x_min":0,"x_max":307,"ha":307,"o":"m 266 350 q 263 327 221 330 l 157 335 q 148 283 135 216 q 112 102 112 69 q 112 44 135 44 q 169 44 223 94 q 224 95 224 95 q 228 95 234 87 q 240 80 240 75 q 240 73 239 72 q 167 -5 100 -5 q 38 -5 38 50 q 38 66 55 164 q 63 213 85 323 q 88 339 69 340 l 42 341 q 32 341 34 354 q 37 373 88 373 l 92 373 q 102 416 102 429 q 105 449 120 469 q 134 489 149 495 q 166 501 176 500 q 187 499 185 490 q 179 451 163 374 l 255 375 q 266 375 268 368 q 268 364 266 350 z"},"M":{"x_min":0,"x_max":918,"ha":918,"o":"m 873 632 q 873 619 847 612 q 818 605 810 599 q 796 589 794 566 l 753 91 q 750 62 762 50 q 771 41 797 35 q 822 30 821 16 q 820 2 812 0 q 808 -2 790 -1 q 668 4 603 -1 q 590 -2 586 2 q 583 5 584 16 q 586 26 607 31 q 650 41 659 47 q 670 55 673 84 l 708 506 q 709 519 703 519 q 698 519 692 510 q 494 180 423 33 q 407 0 405 -3 q 399 -12 390 -15 q 385 -17 382 -17 q 373 -17 369 12 q 356 109 227 502 q 223 513 218 513 q 211 513 209 498 l 146 112 q 144 97 144 86 q 144 45 197 35 q 223 30 221 16 q 219 2 210 0 q 207 -2 189 -1 q 83 3 24 -1 q 11 -2 8 1 q 4 4 6 16 q 7 26 28 31 q 65 39 79 57 q 90 70 96 106 l 166 538 q 167 547 167 554 q 167 587 110 610 q 89 618 92 633 q 94 646 114 643 q 186 632 243 639 q 264 642 271 638 q 278 635 282 621 l 420 148 q 422 140 425 140 q 429 140 435 151 q 531 321 701 610 q 716 635 735 635 q 786 635 847 648 q 865 652 869 649 q 873 646 873 632 z"},"g":{"x_min":0,"x_max":441,"ha":441,"o":"m 403 327 q 397 303 378 303 q 370 303 351 305 q 336 307 333 292 q 333 291 332 264 q 329 146 208 110 q 139 89 139 68 q 139 53 222 22 q 294 -5 322 -25 q 356 -50 356 -87 q 356 -158 290 -201 q 228 -241 136 -241 q 56 -241 8 -215 q -43 -187 -43 -137 q -43 -62 83 0 q 56 21 56 45 q 56 75 125 109 q 36 146 36 226 q 36 297 85 345 q 131 390 196 390 q 241 390 285 367 q 309 352 348 353 l 386 354 q 405 354 405 342 q 405 337 403 327 z m 265 269 q 265 354 189 354 q 155 354 132 321 q 110 288 110 235 q 110 145 180 145 q 265 145 265 269 z m 299 -119 q 299 -86 184 -43 q 155 -32 120 -18 q 39 -64 39 -130 q 39 -202 154 -202 q 216 -202 258 -178 q 299 -153 299 -119 z"},"j":{"x_min":0,"x_max":256,"ha":256,"o":"m 210 565 q 210 542 193 523 q 175 504 154 504 q 130 504 115 518 q 99 531 99 553 q 99 575 117 593 q 134 612 155 612 q 210 612 210 565 z m 177 339 q 177 326 170 269 l 134 -25 q 122 -125 83 -176 q 54 -212 -21 -253 q -32 -259 -37 -251 q -44 -239 -32 -228 q 16 -186 32 -156 q 53 -120 61 -56 l 97 234 q 103 282 103 307 q 103 332 90 332 q 76 332 39 287 q 38 286 37 286 q 32 286 26 292 q 20 299 20 305 q 20 306 20 307 q 82 386 131 386 q 177 386 177 339 z"},"i":{"x_min":0,"x_max":273,"ha":273,"o":"m 222 565 q 222 542 203 523 q 184 504 162 504 q 139 504 124 518 q 109 531 109 553 q 109 575 128 593 q 148 612 169 612 q 222 612 222 565 z m 204 73 q 141 -5 94 -5 q 46 -5 46 33 q 46 50 76 164 q 113 305 113 318 q 113 332 95 332 q 81 332 44 287 q 43 286 41 286 q 36 286 31 292 q 25 298 25 304 q 25 306 26 307 q 90 386 136 386 q 184 386 184 346 q 184 323 155 216 q 118 80 118 63 q 118 49 135 49 q 149 49 187 93 q 188 94 189 94 q 194 94 199 88 q 205 82 205 77 q 205 74 204 73 z"},"y":{"x_min":0,"x_max":470,"ha":470,"o":"m 412 287 q 367 128 286 -8 q 203 -148 101 -231 q 63 -262 47 -259 q 10 -253 -17 -240 q -44 -227 -42 -215 q -36 -176 -10 -179 q 29 -184 46 -184 q 103 -184 134 -153 q 162 -125 169 -104 q 175 -88 175 -46 q 175 58 148 188 q 119 326 86 326 q 55 326 25 287 q 24 286 21 286 q 17 286 10 291 q 4 296 4 301 q 4 304 5 305 q 29 347 51 364 q 77 386 115 386 q 156 386 178 352 q 198 321 215 238 q 239 121 244 -10 q 324 117 363 262 q 366 272 366 281 q 366 311 330 311 q 316 311 295 310 q 285 310 281 327 q 277 345 284 350 q 345 386 369 386 q 419 386 419 334 q 419 314 412 287 z"},"@":{"x_min":0,"x_max":980,"ha":980,"o":"m 912 298 q 912 168 849 94 q 792 28 708 28 q 647 28 612 60 q 575 92 574 150 q 574 160 565 160 q 559 160 555 153 q 477 28 401 28 q 354 28 326 63 q 299 98 299 160 q 299 279 373 365 q 450 454 523 454 q 568 454 605 441 q 636 430 646 441 q 668 462 674 462 q 677 462 682 459 q 691 455 679 417 q 661 364 648 289 q 637 221 637 185 q 637 70 730 70 q 785 70 825 123 q 871 183 871 287 q 871 457 775 542 q 684 625 511 625 q 349 625 242 511 q 135 396 135 223 q 135 45 239 -61 q 343 -166 521 -166 q 652 -166 804 -84 q 811 -81 821 -98 q 831 -115 831 -125 q 831 -128 829 -129 q 664 -196 512 -196 q 303 -196 182 -90 q 58 19 58 215 q 58 404 191 530 q 324 656 519 656 q 698 656 803 566 q 912 471 912 298 z m 590 346 q 590 406 500 406 q 448 406 413 347 q 375 284 375 180 q 375 89 437 89 q 488 89 541 186 q 590 276 590 346 z"},".":{"x_min":0,"x_max":246,"ha":246,"o":"m 149 58 q 149 28 131 7 q 113 -14 87 -14 q 31 -14 31 50 q 31 79 50 98 q 70 118 95 118 q 149 118 149 58 z"},"p":{"x_min":0,"x_max":444,"ha":444,"o":"m 396 265 q 396 150 328 72 q 257 -9 187 -9 q 155 -9 111 -3 q 103 -57 85 -162 q 83 -170 83 -175 q 83 -188 94 -194 q 105 -200 137 -205 q 154 -208 157 -209 q 167 -213 164 -226 q 160 -242 146 -242 q 83 -242 26 -249 q 1 -252 1 -238 q 1 -234 8 -209 q 16 -182 17 -175 l 82 243 q 69 235 24 208 q 11 200 6 214 q 0 229 12 237 q 21 243 48 262 q 76 281 90 291 q 102 349 112 381 q 132 445 152 455 q 168 463 174 463 q 182 463 182 449 q 182 443 181 434 q 178 412 167 340 q 252 390 300 390 q 396 390 396 265 z m 318 245 q 318 326 266 326 q 230 326 159 288 q 147 217 124 68 q 178 44 222 44 q 257 44 285 93 q 318 151 318 245 z"},"X":{"x_min":0,"x_max":740,"ha":740,"o":"m 707 630 q 704 614 672 602 q 623 583 582 537 q 488 432 404 339 q 483 188 552 92 q 585 46 630 31 q 649 26 648 16 q 645 -5 627 -2 q 543 11 436 -1 q 419 -3 415 0 q 410 3 412 15 q 412 25 437 35 q 464 43 464 67 q 464 77 459 86 q 423 146 348 277 q 234 153 204 108 q 188 83 188 66 q 188 45 212 35 q 231 25 228 12 q 226 -5 197 -1 q 114 10 34 1 q 22 0 18 2 q 15 4 17 16 q 18 34 48 42 q 99 62 140 109 q 196 170 327 313 q 275 409 261 434 q 222 504 191 549 q 164 589 112 604 q 90 608 91 618 q 93 639 113 637 q 192 629 304 647 q 310 648 313 648 q 325 649 328 646 q 332 643 330 632 q 329 621 304 611 q 276 600 276 582 q 276 571 286 554 q 319 496 383 375 q 493 496 518 538 q 533 563 533 581 q 533 602 510 611 q 491 620 494 634 q 497 651 524 647 q 613 635 687 645 q 700 647 704 644 q 708 642 707 630 z"},"*":{"x_min":0,"x_max":510,"ha":510,"o":"m 469 461 q 471 410 448 410 q 445 410 442 411 q 300 438 281 428 q 278 425 278 420 q 278 391 366 303 q 376 292 376 286 q 376 273 335 258 q 314 250 301 250 q 281 250 279 269 q 260 419 244 424 q 243 425 241 425 q 214 425 155 306 q 147 291 139 291 q 126 291 102 322 q 82 347 82 361 q 82 373 95 377 q 222 441 229 458 q 230 479 88 508 q 73 511 73 525 q 73 540 88 564 q 107 594 124 594 q 132 594 140 586 q 242 477 257 481 q 269 483 269 528 q 269 564 261 632 q 260 638 260 641 q 260 656 276 656 q 288 656 314 649 q 354 638 354 619 q 354 613 351 607 q 286 483 292 462 q 293 456 307 456 q 351 456 436 507 q 441 510 446 510 q 467 510 469 461 z"},"Y":{"x_min":0,"x_max":730,"ha":730,"o":"m 727 630 q 726 613 694 604 q 659 593 611 537 q 480 384 399 269 q 391 208 377 96 q 375 83 375 75 q 375 56 386 47 q 397 38 428 30 q 455 23 451 6 q 447 -5 439 -6 q 437 -7 419 -5 q 328 3 239 -4 q 210 -9 209 8 q 208 24 227 29 q 267 40 280 55 q 293 70 298 110 q 303 155 315 243 q 268 368 140 554 q 108 601 69 609 l 66 609 q 48 613 49 623 q 51 646 72 643 q 156 632 277 652 q 291 654 296 654 q 305 653 303 637 q 303 627 277 617 q 233 600 233 580 q 233 571 240 559 q 308 444 369 321 q 374 312 376 312 q 379 312 386 321 q 441 393 552 538 q 568 560 568 575 q 568 597 531 611 q 510 619 513 634 q 518 651 546 647 q 634 635 708 645 q 721 646 724 644 q 728 642 727 630 z"},"c":{"x_min":0,"x_max":368,"ha":368,"o":"m 331 337 q 331 323 309 298 q 289 275 276 275 q 264 275 247 302 q 224 338 201 338 q 155 338 125 294 q 92 248 92 168 q 92 108 117 74 q 140 42 175 42 q 218 42 257 75 q 274 89 282 82 q 293 72 293 65 q 293 60 286 53 q 221 -11 148 -11 q 18 -11 18 132 q 18 245 84 318 q 144 384 221 384 q 331 384 331 337 z"},"!":{"x_min":0,"x_max":267,"ha":267,"o":"m 217 626 q 217 608 209 580 q 168 436 147 261 q 141 208 110 193 q 101 188 97 191 q 93 194 94 205 q 114 363 114 583 q 114 613 123 624 q 134 637 175 646 q 188 649 196 649 q 217 649 217 626 z m 147 53 q 147 25 130 6 q 113 -13 90 -13 q 39 -13 39 44 q 39 71 57 89 q 75 107 99 107 q 147 107 147 53 z"},"/":{"x_min":0,"x_max":492,"ha":492,"o":"m 526 702 q 376 481 -54 -166 q -62 -178 -83 -165 q -102 -153 -95 -143 l 486 726 q 492 736 513 725 q 534 714 526 702 z"},"[":{"x_min":0,"x_max":410,"ha":410,"o":"m 429 720 q 428 704 412 702 q 316 693 245 681 q 210 675 204 638 q 198 599 159 285 q 130 49 118 -69 q 114 -106 147 -112 q 213 -124 310 -133 q 325 -134 322 -151 q 319 -167 297 -164 q 266 -161 174 -158 q 88 -155 62 -156 q 28 -157 28 -140 q 28 -135 30 -127 q 53 -9 88 284 q 125 590 131 696 q 132 716 140 721 q 148 726 170 725 q 196 724 283 727 q 375 729 407 733 q 420 734 425 732 q 429 730 429 720 z"},"6":{"x_min":0,"x_max":457,"ha":457,"o":"m 405 620 q 409 606 388 597 q 196 513 133 332 q 182 379 250 379 q 319 379 361 337 q 403 294 403 223 q 403 121 341 54 q 281 -10 196 -10 q 115 -10 70 38 q 23 88 23 185 q 23 350 132 474 q 233 588 388 631 q 401 634 405 620 z m 319 217 q 319 336 226 336 q 173 336 137 288 q 99 238 99 164 q 99 35 204 35 q 257 35 288 84 q 319 133 319 217 z"},"r":{"x_min":0,"x_max":376,"ha":376,"o":"m 344 346 q 326 286 307 286 q 300 286 276 297 q 251 308 239 308 q 215 308 180 249 q 142 183 123 94 l 108 22 q 104 0 65 -2 q 51 -3 44 1 q 38 5 40 14 q 55 85 71 155 q 88 243 88 299 q 88 332 74 332 q 59 332 20 287 q 19 286 17 286 q 13 286 8 292 q 3 298 3 303 q 3 306 4 307 q 63 386 114 386 q 139 386 147 376 q 156 366 156 341 q 156 323 146 269 q 145 265 149 264 q 153 263 156 268 q 185 314 221 347 q 269 390 312 390 q 349 390 349 370 q 349 361 344 346 z"},"2":{"x_min":0,"x_max":392,"ha":392,"o":"m 343 66 q 326 47 282 -43 q 275 -56 260 -52 q 248 -49 254 -31 q 261 -9 240 -4 q 183 3 0 3 q -6 3 -6 12 q -6 21 -1 24 q 136 124 187 178 q 238 233 238 282 q 238 350 161 350 q 110 350 55 306 q 43 297 28 316 q 19 328 38 345 q 109 407 191 407 q 253 407 289 380 q 324 353 324 306 q 324 257 278 205 q 237 159 131 78 q 122 71 122 67 q 122 63 136 63 q 223 63 249 64 q 287 65 309 74 q 332 83 332 83 q 335 83 340 81 q 355 76 343 66 z"},"{":{"x_min":0,"x_max":441,"ha":441,"o":"m 460 721 q 464 701 447 698 q 342 679 304 650 q 269 624 269 573 q 269 556 278 496 q 284 456 284 425 q 284 318 167 280 q 254 249 254 181 q 254 145 226 76 q 196 2 196 -24 q 196 -62 225 -86 q 258 -113 345 -139 q 358 -143 352 -163 q 347 -177 324 -172 q 114 -123 114 -7 q 114 31 147 103 q 174 162 174 187 q 174 252 51 264 q 42 265 44 280 q 45 295 55 296 q 198 309 198 410 q 198 434 191 482 q 183 530 183 554 q 183 702 436 732 q 458 734 460 721 z"},"9":{"x_min":0,"x_max":442,"ha":442,"o":"m 385 231 q 385 95 284 -27 q 188 -142 47 -192 q 40 -194 36 -173 q 34 -161 66 -145 q 128 -114 187 -55 q 241 2 270 62 q 223 28 166 28 q 103 28 64 68 q 24 110 24 184 q 24 275 82 338 q 141 401 226 401 q 295 401 339 356 q 385 310 385 231 z m 314 246 q 314 354 217 354 q 165 354 134 308 q 106 263 106 191 q 106 71 187 71 q 238 71 274 116 q 314 166 314 246 z"}," ":{"x_min":0,"x_max":238,"ha":238,"o":""},"I":{"x_min":0,"x_max":372,"ha":372,"o":"m 326 632 q 324 620 299 612 q 271 604 264 598 q 251 588 248 566 l 189 91 q 184 48 250 35 q 275 30 273 16 q 271 2 263 0 q 260 -2 242 -1 q 117 4 48 -1 q 29 -2 28 8 q 28 11 29 16 q 31 26 52 31 q 83 39 92 46 q 104 56 107 84 l 166 563 q 169 587 152 598 q 140 606 103 613 q 80 617 82 627 q 84 640 88 644 q 92 647 105 646 q 198 635 299 648 q 327 651 327 640 q 327 637 326 632 z"},"H":{"x_min":0,"x_max":818,"ha":818,"o":"m 779 627 q 777 615 756 612 q 715 607 709 561 l 649 80 q 646 57 663 45 q 674 37 709 28 q 729 23 727 13 q 725 0 722 -2 q 718 -5 704 -4 q 614 4 522 0 q 506 -1 502 1 q 496 4 497 17 q 500 33 523 36 q 562 42 567 80 l 591 272 q 592 279 592 284 q 594 307 569 307 l 241 307 q 221 307 216 302 q 211 296 208 274 l 183 80 q 180 53 235 36 q 260 29 258 17 q 256 3 250 0 q 246 -1 229 0 q 138 4 46 -4 q 31 -5 28 -2 q 25 0 27 13 q 28 26 50 28 q 95 33 101 80 l 159 549 q 165 592 104 606 q 95 608 87 611 q 79 613 80 623 q 82 636 90 639 q 95 641 112 640 q 228 633 299 640 q 313 641 317 638 q 321 635 319 623 q 318 614 296 609 q 266 603 255 593 q 245 583 242 556 l 222 391 q 221 384 221 379 q 221 357 249 357 l 572 357 q 590 357 596 361 q 603 368 606 393 l 627 561 q 628 566 628 571 q 628 587 615 594 q 605 601 571 608 q 546 613 546 625 q 547 638 553 642 q 558 645 577 643 q 627 638 682 641 q 722 643 761 645 q 775 645 778 642 q 780 639 779 627 z"},"4":{"x_min":0,"x_max":454,"ha":454,"o":"m 396 84 q 402 83 402 75 q 402 64 390 26 q 380 -3 363 -1 q 338 0 299 3 q 296 -25 284 -138 q 283 -147 276 -151 q 270 -154 243 -162 q 222 -168 213 -167 q 205 -165 206 -156 q 216 -90 230 4 q 146 7 -12 13 q -15 13 -15 27 q -15 42 -11 45 q 250 315 306 407 q 310 413 319 413 q 329 413 348 406 q 358 402 351 377 q 345 347 337 307 l 307 56 q 341 56 358 60 q 369 62 380 78 q 386 86 396 84 z m 262 288 q 194 197 70 63 l 235 59 q 240 99 262 288 z"},"~":{"x_min":0,"x_max":478,"ha":478,"o":"m 399 316 q 360 264 347 249 q 322 220 296 220 q 282 220 224 237 q 166 254 160 254 q 147 254 134 245 l 88 205 q 82 199 66 212 q 54 222 61 227 q 92 271 112 294 q 138 324 163 324 q 177 324 235 307 q 294 289 299 289 q 313 289 325 299 q 352 321 372 339 q 378 344 393 331 q 406 323 399 316 z"},"D":{"x_min":0,"x_max":763,"ha":763,"o":"m 707 392 q 707 188 585 86 q 476 -6 279 -6 q 264 -6 214 -3 q 164 0 133 0 q 94 0 46 -4 q 33 -5 30 -2 q 26 1 27 13 q 28 24 50 29 q 82 37 90 47 q 98 58 103 97 l 159 548 q 160 557 160 563 q 160 588 118 597 q 96 602 91 605 q 87 608 87 620 q 87 632 98 635 q 100 636 119 637 q 220 644 379 644 q 473 644 533 624 q 572 611 616 581 q 653 555 678 510 q 707 457 707 392 z m 609 372 q 609 497 544 551 q 482 603 353 603 q 285 603 263 596 q 246 590 244 572 l 188 120 q 187 108 187 99 q 187 65 210 52 q 234 40 298 40 q 609 40 609 372 z"},"^":{"x_min":0,"x_max":558,"ha":558,"o":"m 467 403 q 473 396 464 391 q 443 380 434 388 q 341 467 279 535 q 221 469 122 387 q 112 379 95 391 q 86 397 92 404 q 197 537 252 638 q 259 651 279 651 q 300 651 306 639 q 342 567 467 403 z"},"0":{"x_min":0,"x_max":453,"ha":453,"o":"m 402 242 q 402 139 337 67 q 271 -6 182 -6 q 103 -6 59 40 q 17 84 17 159 q 17 261 86 333 q 152 402 238 402 q 318 402 361 357 q 402 315 402 242 z m 320 241 q 320 359 231 359 q 175 359 138 304 q 100 249 100 167 q 100 39 191 39 q 247 39 283 93 q 320 149 320 241 z"},"F":{"x_min":0,"x_max":536,"ha":536,"o":"m 526 635 q 515 600 504 525 q 500 510 488 510 q 477 510 472 523 q 463 558 452 573 q 439 589 415 593 q 389 597 282 597 q 247 597 244 577 l 217 356 q 216 347 220 346 q 222 345 229 345 q 270 346 349 351 q 365 353 372 361 q 378 371 388 406 q 393 425 412 421 q 427 418 423 406 q 407 354 393 233 q 392 221 376 219 q 363 218 362 234 q 358 295 325 299 q 292 303 218 303 q 210 303 210 297 q 197 203 183 77 q 180 53 196 44 q 208 37 253 31 q 275 28 269 10 q 266 -6 228 -3 q 120 6 46 -4 q 33 -6 29 -2 q 25 1 26 13 q 28 26 49 28 q 95 33 105 112 l 156 530 q 157 541 157 550 q 157 590 115 611 q 99 619 103 635 q 108 648 137 643 q 165 638 284 638 q 406 638 497 644 q 527 646 527 641 q 527 638 526 635 z"},"`":{"x_min":0,"x_max":478,"ha":478,"o":"m 314 462 q 317 457 307 451 q 291 442 284 449 q 227 507 178 582 q 170 594 170 606 q 170 615 192 626 q 214 638 234 638 q 244 638 253 625 q 258 619 273 562 q 291 501 314 462 z"},"k":{"x_min":0,"x_max":459,"ha":459,"o":"m 417 73 q 358 -5 310 -5 q 276 -5 254 25 q 232 54 196 149 q 187 167 206 176 q 313 227 314 284 q 315 330 267 330 q 222 330 181 267 q 138 200 120 94 l 108 22 q 104 1 62 -2 q 48 -3 41 1 q 34 5 35 14 q 84 365 109 604 q 112 637 99 637 q 79 637 32 624 q 27 623 23 630 q 19 637 19 644 q 19 648 21 649 q 123 697 151 697 q 193 697 193 664 q 193 660 192 656 q 169 515 127 269 q 126 265 130 265 q 135 265 137 268 q 212 390 294 390 q 335 390 360 368 q 384 346 383 309 q 381 224 274 168 q 262 162 269 147 q 312 51 338 51 q 360 51 402 93 q 403 94 404 94 q 408 94 413 88 q 418 82 418 77 q 418 75 417 73 z"},"u":{"x_min":0,"x_max":475,"ha":475,"o":"m 436 76 q 377 -3 330 -3 q 285 -3 285 43 q 285 66 292 113 q 292 118 289 118 q 285 119 282 114 q 209 -8 130 -8 q 93 -8 71 14 q 48 37 48 79 q 48 108 74 218 q 93 298 93 318 q 93 332 77 332 q 63 332 26 287 q 25 286 23 286 q 19 286 13 292 q 8 298 8 303 q 8 306 9 307 q 70 386 116 386 q 165 386 165 346 q 165 328 141 218 q 120 122 120 106 q 120 56 167 56 q 203 56 245 122 q 291 192 308 288 l 322 366 q 326 387 364 390 q 389 392 391 385 q 391 381 390 374 q 351 159 351 97 q 351 51 367 51 q 381 51 420 95 q 421 96 422 96 q 426 96 432 90 q 437 83 437 79 q 437 77 436 76 z"},"]":{"x_min":0,"x_max":410,"ha":410,"o":"m 365 696 q 340 566 306 284 q 271 -7 264 -127 q 263 -146 253 -152 q 246 -157 224 -156 q 198 -155 112 -158 q 20 -161 -13 -164 q -26 -166 -31 -163 q -35 -161 -34 -151 q -33 -134 -18 -133 q 80 -124 149 -112 q 184 -106 190 -69 q 196 -33 235 285 q 265 526 276 638 q 280 675 247 681 q 183 693 84 702 q 70 703 73 720 q 76 735 97 733 q 128 729 221 727 q 306 724 332 725 q 366 726 366 708 q 366 703 365 696 z"},"U":{"x_min":0,"x_max":776,"ha":776,"o":"m 767 626 q 766 616 744 611 q 704 602 693 590 q 681 579 677 548 q 664 438 645 280 q 606 -14 339 -14 q 100 -14 100 196 q 100 225 104 257 l 140 550 q 141 555 141 559 q 141 597 95 606 q 72 610 73 624 q 75 639 81 642 q 85 643 103 642 q 227 635 294 642 q 300 643 303 643 q 310 643 312 641 q 313 639 313 633 q 313 630 312 624 q 311 614 290 609 q 248 600 239 593 q 228 584 224 556 l 188 263 q 184 230 184 202 q 184 116 225 75 q 268 33 361 33 q 553 33 585 280 q 600 396 617 541 q 618 548 618 555 q 618 597 563 608 q 538 613 540 626 q 542 641 548 643 q 552 645 570 644 q 700 639 749 644 q 762 646 765 642 q 769 639 767 626 z"},"o":{"x_min":0,"x_max":413,"ha":413,"o":"m 361 235 q 361 131 300 61 q 242 -6 162 -6 q 21 -6 21 154 q 21 257 84 326 q 144 389 222 389 q 290 389 326 348 q 361 308 361 235 z m 282 208 q 282 345 203 345 q 157 345 128 299 q 100 252 100 173 q 100 37 183 37 q 229 37 255 83 q 282 130 282 208 z"},"N":{"x_min":0,"x_max":797,"ha":797,"o":"m 789 633 q 788 621 762 613 q 702 595 696 545 l 653 194 q 642 99 634 15 q 632 -11 619 -14 q 599 -19 588 9 q 570 56 437 237 q 320 396 218 520 q 214 524 210 522 q 205 520 204 511 l 159 112 q 158 104 158 98 q 158 46 211 35 q 235 30 234 16 q 230 -2 203 -1 q 93 4 32 -1 q 19 -2 15 2 q 12 5 13 16 q 14 26 36 31 q 74 40 88 57 q 100 71 104 106 l 157 538 q 161 570 103 610 q 83 624 85 633 q 87 646 106 643 q 165 634 210 639 q 233 642 249 621 q 491 306 584 172 q 589 165 592 165 q 597 165 598 177 l 643 542 q 644 548 644 553 q 644 605 589 615 q 566 619 568 629 q 571 649 592 647 q 667 638 762 649 q 771 650 776 650 q 791 650 789 633 z"},"+":{"x_min":0,"x_max":529,"ha":529,"o":"m 461 204 q 461 194 452 186 q 444 177 432 177 l 277 177 l 277 5 q 277 -19 238 -19 q 215 -19 215 -9 l 215 177 l 40 177 q 32 177 32 190 q 32 212 60 212 l 215 212 l 215 386 q 215 410 263 410 q 277 410 277 403 l 277 212 l 453 212 q 461 212 461 204 z"},"G":{"x_min":0,"x_max":761,"ha":761,"o":"m 721 292 q 718 275 697 272 q 661 267 652 261 q 642 256 640 240 l 623 109 q 617 68 546 30 q 466 -14 361 -14 q 228 -14 143 61 q 55 138 55 262 q 55 430 170 543 q 285 656 454 656 q 554 656 615 635 q 666 618 666 598 q 667 562 658 488 q 656 473 636 471 q 616 469 612 483 q 592 555 554 583 q 514 613 430 613 q 305 613 230 524 q 154 433 154 278 q 154 169 213 102 q 275 32 383 32 q 447 32 491 54 q 536 75 542 110 q 544 125 554 198 q 556 210 556 219 q 556 258 503 274 q 477 282 480 293 q 483 306 488 309 q 493 312 511 310 q 624 298 701 309 q 715 311 718 308 q 722 306 721 292 z"},"q":{"x_min":0,"x_max":422,"ha":422,"o":"m 382 402 q 387 398 387 394 q 387 387 375 352 q 363 317 337 148 l 290 -162 q 289 -168 289 -173 q 289 -197 342 -205 q 359 -208 362 -209 q 371 -214 369 -226 q 366 -242 351 -242 q 219 -242 169 -249 q 153 -251 148 -242 q 143 -229 161 -222 q 191 -212 203 -201 q 217 -188 222 -158 q 230 -112 270 112 q 271 116 267 117 q 263 117 261 113 q 185 -9 113 -9 q 67 -9 41 24 q 15 57 15 117 q 15 229 85 309 q 155 390 225 390 q 271 390 301 379 q 331 368 338 378 q 364 406 371 406 q 375 406 382 402 z m 282 288 q 282 339 203 339 q 157 339 126 286 q 92 229 92 134 q 92 55 146 55 q 192 55 238 142 q 282 224 282 288 z"},"d":{"x_min":0,"x_max":456,"ha":456,"o":"m 414 71 q 354 -8 307 -8 q 263 -8 263 39 q 263 67 270 109 q 271 115 268 116 q 265 117 261 110 q 235 65 199 31 q 153 -12 113 -12 q 67 -12 41 21 q 15 53 15 113 q 15 226 85 306 q 155 387 225 387 q 263 387 301 376 q 303 375 307 400 l 338 604 q 343 637 329 637 q 308 637 250 623 q 244 622 240 631 q 235 641 240 644 q 351 697 379 697 q 415 697 415 663 q 415 660 414 656 q 390 511 342 212 q 330 134 330 93 q 330 46 345 46 q 360 46 397 91 q 398 92 399 92 q 404 92 409 85 q 415 79 415 74 q 415 72 414 71 z m 282 285 q 282 336 203 336 q 157 336 126 283 q 92 225 92 131 q 92 52 146 52 q 192 52 238 139 q 282 220 282 285 z"},"1":{"x_min":0,"x_max":292,"ha":292,"o":"m 249 376 q 248 362 222 356 q 191 348 183 302 l 149 105 q 146 90 146 80 q 146 47 181 38 q 207 31 202 15 q 198 2 190 0 q 186 -1 167 0 q 104 5 32 -2 q 8 -4 7 5 q 7 8 8 15 q 10 26 36 35 q 66 45 74 89 q 84 141 110 286 q 113 302 113 312 q 113 344 77 353 l 74 354 q 59 358 56 361 q 53 365 56 376 q 60 389 68 392 q 71 393 90 391 q 145 387 224 393 q 249 395 250 385 q 250 382 249 376 z"},"5":{"x_min":0,"x_max":369,"ha":369,"o":"m 351 407 q 339 385 323 348 q 316 327 298 327 q 292 327 284 330 q 238 349 158 349 q 145 349 141 336 q 118 259 112 231 q 291 199 291 85 q 291 -102 21 -178 q 8 -182 4 -164 q 0 -149 21 -143 q 94 -121 146 -66 q 206 -3 206 74 q 206 174 35 201 q 25 203 28 215 q 29 219 65 369 q 70 390 97 390 q 152 391 267 396 q 297 397 316 415 q 329 427 345 427 q 363 427 351 407 z"}}}
